<svg width="18" height="20" viewBox="0 0 18 20" fill="none" xmlns="http://www.w3.org/2000/svg">
<path d="M12.1836 0.0742188C11.4805 0.25 10.8125 0.597656 10.2149 1.10547C9.21097 1.95703 8.57035 3.36719 8.668 4.51172L8.69535 4.84375L8.99222 4.81641C9.78128 4.75391 10.5274 4.43359 11.2227 3.85547C11.8555 3.33594 12.4297 2.40234 12.6758 1.50391C12.7383 1.27344 12.7657 1.03516 12.7774 0.59375L12.7969 0L12.6289 0.00390625C12.5352 0.00390625 12.336 0.0351562 12.1836 0.0742188Z" fill="white"/>
<path d="M5.15235 4.6914C3.29297 4.85156 1.42578 6.42578 0.796877 8.36328C0.390627 9.62109 0.335939 11.1875 0.644533 12.7734C0.929689 14.2227 1.47656 15.6211 2.28516 16.9531C3.14453 18.3672 4.02344 19.3281 4.83985 19.7422C5.22266 19.9336 5.51172 20 5.97266 20C6.44141 20 6.73047 19.9297 7.36719 19.6562C8.19531 19.3008 8.70703 19.1797 9.39063 19.1797C10.0469 19.1797 10.5 19.2891 11.3008 19.6367C11.9688 19.9258 12.2539 20 12.7148 20C13.1523 20 13.4844 19.9141 13.8828 19.6992C14.875 19.1602 16.1758 17.5156 17.1211 15.6055C17.3359 15.1758 17.5195 14.7891 17.5313 14.7461C17.5508 14.6797 17.4961 14.6367 17.1484 14.4648C16.082 13.9219 15.3438 13.0586 14.9609 11.9141C14.7773 11.3594 14.7266 10.9687 14.7539 10.2969C14.7773 9.66016 14.8828 9.21875 15.1289 8.69141C15.4688 7.96484 16.043 7.3125 16.7031 6.90234C16.8477 6.8125 16.9688 6.72265 16.9688 6.70703C16.9688 6.64844 16.5586 6.20703 16.2656 5.95312C15.7227 5.48047 15.0391 5.07422 14.4688 4.89062C13.9883 4.73437 13.6484 4.67969 13.1016 4.67969C12.3281 4.67969 11.8672 4.77734 10.7773 5.18359C9.90235 5.50781 9.39844 5.57422 8.73828 5.44922C8.56641 5.41797 8.06641 5.26953 7.62891 5.12109C6.46485 4.72656 5.88672 4.6289 5.15235 4.6914Z" fill="white"/>
</svg>
