<svg width="20" height="20" viewBox="0 0 20 20" fill="none" xmlns="http://www.w3.org/2000/svg">
<path d="M4.43242 12.0863L3.73625 14.6852L1.19176 14.739C0.431328 13.3286 0 11.7149 0 10C0 8.34179 0.403281 6.77804 1.11812 5.40112H1.11867L3.38398 5.81644L4.37633 8.06815C4.16863 8.67366 4.05543 9.32366 4.05543 10C4.05551 10.7341 4.18848 11.4374 4.43242 12.0863Z" fill="white"/>
<path d="M19.8253 8.13208C19.9401 8.737 20 9.36173 20 10.0002C20 10.7161 19.9247 11.4145 19.7813 12.0881C19.2945 14.3804 18.0225 16.3821 16.2605 17.7986L16.2599 17.798L13.4066 17.6524L13.0028 15.1315C14.172 14.4458 15.0858 13.3727 15.5671 12.0881H10.2198V8.13208H15.6451H19.8253Z" fill="white"/>
<path d="M16.2599 17.7979L16.2604 17.7985C14.5467 19.176 12.3698 20.0001 10 20.0001C6.19177 20.0001 2.8808 17.8716 1.19177 14.7392L4.43244 12.0864C5.27693 14.3403 7.45111 15.9447 10 15.9447C11.0956 15.9447 12.122 15.6485 13.0027 15.1315L16.2599 17.7979Z" fill="white"/>
<path d="M16.383 2.30219L13.1434 4.95437C12.2319 4.38461 11.1544 4.05547 10 4.05547C7.39344 4.05547 5.17859 5.73348 4.37641 8.06812L1.11871 5.40109H1.11816C2.78246 2.1923 6.1352 0 10 0C12.4264 0 14.6511 0.864297 16.383 2.30219Z" fill="white"/>
</svg>
