<svg width="160" height="147" viewBox="0 0 160 147" fill="none" xmlns="http://www.w3.org/2000/svg">
<path d="M40.4431 -8.98228L40.4425 -8.98286C38.3112 -11.2186 36.0453 -12.2341 33.8702 -12.4328C31.6895 -12.632 29.5686 -12.0128 27.7321 -10.9247C25.8946 -9.8359 24.3561 -8.28563 23.3465 -6.64926C22.3326 -5.00598 21.8758 -3.31708 22.1284 -1.94101L21.5154 -1.65834C20.5524 -2.84279 18.936 -3.68612 17.024 -4.08C15.1168 -4.47287 12.9499 -4.41053 10.9264 -3.81865C8.90393 -3.22711 7.03821 -2.11109 5.71154 -0.408361C4.38789 1.29049 3.58247 3.59658 3.71486 6.606L40.4431 -8.98228ZM40.4431 -8.98228C42.7003 -6.62542 43.3949 -3.62907 43.1287 -0.384024C42.8619 2.86868 41.6301 6.34567 40.0643 9.60788C38.5003 12.8665 36.6136 15.8892 35.0557 18.2304C34.4183 19.1884 33.8371 20.0304 33.3551 20.7287C33.2481 20.8838 33.146 21.0317 33.0492 21.1723C32.7835 21.5582 32.557 21.8902 32.3819 22.1588C32.2979 22.2876 32.2227 22.4064 32.1594 22.5124M40.4431 -8.98228L32.1594 22.5124M32.1594 22.5124C32.0259 22.4715 31.8733 22.4323 31.7074 22.3937C31.3831 22.3182 30.9796 22.2389 30.5125 22.1531C30.0805 22.0738 29.5898 21.9882 29.0518 21.8944L28.9172 21.8709C28.3257 21.7677 27.6784 21.6543 26.9865 21.5279C24.2181 21.0218 20.7449 20.3071 17.3279 19.2004C13.9071 18.0925 10.5665 16.5992 8.04903 14.5482C5.53843 12.5027 3.86215 9.91743 3.71487 6.60616L32.1594 22.5124ZM30.7602 19.9243L31.0663 20.0652L31.2174 19.764C31.256 19.687 31.3456 19.546 31.4942 19.3317C31.6389 19.123 31.8277 18.8614 32.0538 18.5504C32.1214 18.4573 32.1922 18.3601 32.266 18.2587C32.6846 17.6838 33.1991 16.9773 33.7652 16.1701C35.097 14.2713 36.7214 11.8067 38.0825 9.15024C39.4416 6.49785 40.5502 3.63123 40.8303 0.931586C41.1112 -1.77636 40.5593 -4.34593 38.561 -6.33932C36.7499 -8.1674 34.764 -9.00102 32.8119 -9.12826C30.8662 -9.25509 28.9809 -8.67873 27.3612 -7.73305C25.742 -6.78774 24.3725 -5.46462 23.4542 -4.07123C22.7497 -3.00222 22.2936 -1.86424 22.2202 -0.807808C21.3277 -1.52601 20.1291 -2.0067 18.8164 -2.24252C17.1455 -2.54269 15.2508 -2.45416 13.4728 -1.92364C11.694 -1.3929 10.0169 -0.4149 8.80219 1.07732C7.58398 2.57382 6.84763 4.56741 6.92358 7.09262C6.99074 9.9597 8.45498 12.1454 10.5936 13.8099C12.7244 15.4684 15.5425 16.6259 18.3808 17.4586C21.2233 18.2924 24.1125 18.8077 26.4009 19.1683C26.9764 19.259 27.5074 19.3389 27.991 19.4117C28.478 19.485 28.917 19.5511 29.3052 19.6137C29.6879 19.6753 30.0086 19.7317 30.2607 19.7854C30.5212 19.8408 30.6813 19.8879 30.7602 19.9243Z" stroke="#EF7E06" stroke-opacity="0.2" stroke-width="0.696761"/>
<mask id="path-2-inside-1_69_198" fill="white">
<path d="M34.8592 -1.75051C29.6996 -7.1297 23.0358 -0.894897 23.6915 2.61143C21.2224 -0.352243 12.437 0.349223 12.7961 7.61475C13.1611 15.7861 28.5924 16.6538 29.926 17.2988C30.47 16.0839 40.4291 4.06009 34.8592 -1.75051Z"/>
</mask>
<path d="M23.6915 2.61143L23.1562 3.05742L24.868 5.11213L24.3764 2.48335L23.6915 2.61143ZM12.7961 7.61475L13.4921 7.58365L13.492 7.58036L12.7961 7.61475ZM29.926 17.2988L29.6226 17.9261L30.2686 18.2386L30.5619 17.5836L29.926 17.2988ZM35.3621 -2.23283C33.9673 -3.68696 32.4307 -4.3922 30.906 -4.52549C29.3925 -4.65781 27.952 -4.22165 26.7387 -3.50058C25.5273 -2.7807 24.5133 -1.76066 23.8413 -0.671719C23.1781 0.403005 22.799 1.62896 23.0066 2.73951L24.3764 2.48335C24.2562 1.84074 24.4642 0.972472 25.0272 0.0601164C25.5815 -0.838019 26.433 -1.69792 27.4506 -2.30263C28.4661 -2.90616 29.6181 -3.23925 30.7847 -3.13727C31.9401 -3.03626 33.1714 -2.50366 34.3564 -1.2682L35.3621 -2.23283ZM24.2268 2.16545C23.4766 1.26494 22.2999 0.696029 21.0361 0.438459C19.7625 0.178888 18.3297 0.219389 16.9892 0.607927C15.6467 0.997081 14.3688 1.74447 13.4503 2.92267C12.5255 4.10889 12.003 5.68362 12.1001 7.64915L13.492 7.58036C13.4096 5.91312 13.8506 4.67559 14.5493 3.77947C15.2542 2.87533 16.2596 2.2703 17.3772 1.94635C18.4969 1.62179 19.701 1.58852 20.7578 1.80391C21.8245 2.0213 22.6719 2.47609 23.1562 3.05742L24.2268 2.16545ZM12.1 7.64585C12.2023 9.93686 13.3695 11.6938 14.9983 13.0241C16.6134 14.3432 18.7113 15.2706 20.783 15.942C22.8622 16.6157 24.9632 17.0465 26.6129 17.3481C27.4855 17.5076 28.1084 17.6097 28.6957 17.7179C28.9681 17.7681 29.189 17.812 29.3585 17.8519C29.4429 17.8717 29.5085 17.8891 29.5575 17.904C29.6101 17.9201 29.6271 17.9283 29.6226 17.9261L30.2294 16.6716C30.0699 16.5945 29.864 16.5392 29.6772 16.4953C29.4739 16.4475 29.2262 16.3987 28.9483 16.3475C28.4351 16.2529 27.6307 16.1175 26.8635 15.9773C25.2334 15.6793 23.2037 15.2615 21.2126 14.6163C19.2142 13.9687 17.3025 13.1068 15.8798 11.9448C14.471 10.7941 13.5723 9.3783 13.4921 7.58365L12.1 7.64585ZM30.5619 17.5836C30.5616 17.5842 30.5643 17.5782 30.572 17.5639C30.5795 17.55 30.5898 17.5318 30.6035 17.5085C30.6313 17.4615 30.6686 17.4018 30.7165 17.3281C30.8125 17.1802 30.9401 16.9926 31.0969 16.7643C31.4078 16.3117 31.8244 15.7129 32.2898 15.0126C33.2209 13.6119 34.3627 11.7828 35.3136 9.79868C36.2611 7.82176 37.0405 5.64758 37.2092 3.56266C37.3792 1.46228 36.9302 -0.596945 35.3622 -2.23267L34.3562 -1.26836C35.5732 0.00121926 35.968 1.62395 35.8202 3.45024C35.6712 5.29198 34.9711 7.28918 34.057 9.19641C33.1463 11.0965 32.0445 12.8643 31.1293 14.2413C30.6716 14.9299 30.2643 15.5152 29.9483 15.9753C29.7916 16.2034 29.6548 16.4044 29.5479 16.569C29.4489 16.7214 29.3492 16.882 29.29 17.0141L30.5619 17.5836Z" fill="#EF7E06" fill-opacity="0.2" mask="url(#path-2-inside-1_69_198)"/>
<path d="M49.812 45.8733L49.8126 45.874C52.3785 48.5532 53.1682 51.9593 52.8656 55.6482C52.5623 59.3457 51.162 63.2983 49.3821 67.0066C47.6041 70.7109 45.4594 74.1471 43.6885 76.8084C42.9638 77.8975 42.303 78.8548 41.7551 79.6487C41.6335 79.8248 41.5174 79.9929 41.4075 80.1526C41.1055 80.5913 40.8481 80.9688 40.649 81.2741C40.5535 81.4205 40.4679 81.5555 40.396 81.676C40.2443 81.6296 40.0708 81.585 39.8822 81.541C39.5136 81.4552 39.0549 81.3651 38.5239 81.2676C38.0331 81.1775 37.4758 81.0803 36.8646 80.9737L36.7105 80.9468C36.038 80.8294 35.3022 80.7006 34.5157 80.5568C31.3687 79.9816 27.4205 79.1691 23.5361 77.911C19.6475 76.6516 15.85 74.9541 12.9882 72.6226C10.1343 70.2974 8.22873 67.3585 8.06131 63.5944C7.91077 60.1733 8.82634 57.5518 10.3311 55.6205C11.8392 53.6849 13.96 52.4163 16.2591 51.7438C18.5594 51.071 21.0226 51.0001 23.1906 51.4467C25.3641 51.8945 27.2016 52.8532 28.2963 54.1996L28.9931 53.8783C28.706 52.314 29.2253 50.3941 30.3778 48.5261C31.5256 46.6659 33.2744 44.9036 35.3632 43.666C37.4509 42.429 39.8619 41.7252 42.3408 41.9516C44.8134 42.1774 47.3892 43.3319 49.812 45.8733ZM38.8055 78.7339L39.1535 78.8942L39.3252 78.5518C39.3691 78.4642 39.471 78.304 39.6399 78.0603C39.8044 77.8231 40.0189 77.5257 40.2759 77.1721C40.3528 77.0664 40.4333 76.9558 40.5172 76.8405C40.9931 76.1871 41.5779 75.3839 42.2215 74.4663C43.7354 72.3078 45.582 69.5061 47.1292 66.4864C48.6741 63.4713 49.9344 60.2126 50.2528 57.1437C50.5721 54.0655 49.9447 51.1446 47.6733 48.8786C45.6145 46.8004 43.3569 45.8527 41.1378 45.708C38.926 45.5639 36.7828 46.2191 34.9416 47.2941C33.101 48.3687 31.5441 49.8727 30.5003 51.4567C29.6995 52.6719 29.181 53.9655 29.0975 55.1664C28.083 54.35 26.7204 53.8036 25.2282 53.5355C23.3288 53.1943 21.1749 53.2949 19.1537 53.898C17.1317 54.5013 15.2252 55.6131 13.8444 57.3094C12.4596 59.0106 11.6225 61.2768 11.7089 64.1474C11.7852 67.4066 13.4497 69.8912 15.8808 71.7834C18.303 73.6687 21.5065 74.9845 24.733 75.931C27.9643 76.8789 31.2486 77.4647 33.85 77.8746C34.5042 77.9777 35.1078 78.0685 35.6575 78.1513C36.2112 78.2346 36.7102 78.3097 37.1515 78.3808C37.5865 78.451 37.951 78.515 38.2377 78.576C38.5338 78.639 38.7158 78.6926 38.8055 78.7339Z" stroke="#EF7E06" stroke-opacity="0.2" stroke-width="0.792053"/>
<mask id="path-5-inside-2_69_198" fill="white">
<path d="M43.4651 54.0939C37.5997 47.9791 30.0246 55.0666 30.77 59.0524C27.9632 55.6834 17.9762 56.4808 18.3844 64.74C18.7994 74.0289 36.3412 75.0153 37.8571 75.7486C38.4755 74.3675 49.7967 60.6992 43.4651 54.0939Z"/>
</mask>
<path d="M30.77 59.0524L30.1615 59.5594L32.1074 61.8951L31.5486 58.9068L30.77 59.0524ZM18.3844 64.74L19.1757 64.7047L19.1755 64.7009L18.3844 64.74ZM37.8571 75.7486L37.5122 76.4616L38.2466 76.8168L38.58 76.0722L37.8571 75.7486ZM44.0367 53.5456C42.4511 51.8926 40.7044 51.0909 38.9712 50.9394C37.2507 50.789 35.6132 51.2848 34.2339 52.1045C32.8568 52.9228 31.7042 54.0824 30.9403 55.3203C30.1864 56.542 29.7554 57.9356 29.9915 59.198L31.5486 58.9068C31.412 58.1763 31.6483 57.1893 32.2884 56.1522C32.9184 55.1312 33.8864 54.1537 35.0432 53.4663C36.1976 52.7802 37.5071 52.4016 38.8332 52.5175C40.1466 52.6323 41.5463 53.2378 42.8935 54.6422L44.0367 53.5456ZM31.3785 58.5454C30.5257 57.5218 29.1881 56.8751 27.7514 56.5823C26.3036 56.2872 24.6748 56.3332 23.1511 56.7749C21.6249 57.2173 20.1723 58.0669 19.1281 59.4062C18.0768 60.7547 17.4829 62.5448 17.5933 64.7791L19.1755 64.7009C19.0819 62.8057 19.5832 61.3989 20.3774 60.3802C21.1787 59.3524 22.3217 58.6646 23.5921 58.2964C24.865 57.9274 26.2337 57.8896 27.4351 58.1345C28.6476 58.3816 29.6109 58.8986 30.1615 59.5594L31.3785 58.5454ZM17.5932 64.7754C17.7095 67.3797 19.0363 69.3769 20.8879 70.8892C22.7238 72.3886 25.1087 73.4429 27.4638 74.2061C29.8272 74.972 32.2155 75.4617 34.0909 75.8045C35.0829 75.9858 35.791 76.1019 36.4586 76.2249C36.7682 76.282 37.0194 76.3319 37.212 76.3772C37.308 76.3997 37.3825 76.4195 37.4383 76.4365C37.4981 76.4547 37.5174 76.4641 37.5122 76.4616L38.202 75.0355C38.0207 74.9478 37.7867 74.885 37.5743 74.8351C37.3432 74.7808 37.0616 74.7253 36.7457 74.6671C36.1623 74.5595 35.2479 74.4056 34.3757 74.2462C32.5227 73.9075 30.2154 73.4326 27.9521 72.6991C25.6804 71.963 23.5072 70.9832 21.89 69.6623C20.2884 68.3542 19.2668 66.7448 19.1757 64.7047L17.5932 64.7754ZM38.58 76.0722C38.5797 76.073 38.5827 76.0661 38.5915 76.0498C38.6 76.0341 38.6117 76.0133 38.6273 75.9868C38.6589 75.9334 38.7013 75.8656 38.7558 75.7818C38.8649 75.6137 39.0099 75.4005 39.1882 75.1409C39.5416 74.6263 40.0152 73.9457 40.5443 73.1497C41.6026 71.5573 42.9006 69.4781 43.9816 67.2226C45.0587 64.9753 45.9446 62.5038 46.1364 60.1337C46.3297 57.7461 45.8193 55.4053 44.0369 53.5458L42.8933 54.642C44.2767 56.0852 44.7255 57.9299 44.5575 60.006C44.388 62.0996 43.5922 64.3699 42.5531 66.538C41.5179 68.6979 40.2654 70.7075 39.225 72.2728C38.7047 73.0556 38.2417 73.721 37.8824 74.244C37.7043 74.5033 37.5488 74.7318 37.4273 74.9189C37.3148 75.0921 37.2014 75.2747 37.1342 75.4249L38.58 76.0722Z" fill="#EF7E06" fill-opacity="0.2" mask="url(#path-5-inside-2_69_198)"/>
<path d="M107.443 7.01772L107.442 7.01714C105.311 4.78143 103.045 3.7659 100.87 3.56721C98.6895 3.36802 96.5686 3.98718 94.7321 5.07533C92.8946 6.1641 91.3561 7.71437 90.3465 9.35074C89.3326 10.994 88.8758 12.6829 89.1284 14.059L88.5154 14.3417C87.5524 13.1572 85.936 12.3139 84.024 11.92C82.1168 11.5271 79.9499 11.5895 77.9264 12.1814C75.9039 12.7729 74.0382 13.8889 72.7115 15.5916C71.3879 17.2905 70.5825 19.5966 70.7149 22.606L107.443 7.01772ZM107.443 7.01772C109.7 9.37458 110.395 12.3709 110.129 15.616C109.862 18.8687 108.63 22.3457 107.064 25.6079C105.5 28.8665 103.614 31.8892 102.056 34.2304C101.418 35.1884 100.837 36.0304 100.355 36.7287C100.248 36.8838 100.146 37.0317 100.049 37.1723C99.7835 37.5582 99.557 37.8902 99.3819 38.1588C99.2979 38.2876 99.2227 38.4064 99.1594 38.5124M107.443 7.01772L99.1594 38.5124M99.1594 38.5124C99.0259 38.4715 98.8733 38.4323 98.7074 38.3937C98.3831 38.3182 97.9796 38.2389 97.5125 38.1531C97.0805 38.0738 96.5898 37.9882 96.0518 37.8944L95.9172 37.8709C95.3257 37.7677 94.6784 37.6543 93.9865 37.5279C91.2181 37.0218 87.7449 36.3071 84.3279 35.2004C80.9071 34.0925 77.5665 32.5992 75.049 30.5482C72.5384 28.5027 70.8621 25.9174 70.7149 22.6062L99.1594 38.5124ZM97.7602 35.9243L98.0663 36.0652L98.2174 35.764C98.256 35.687 98.3456 35.546 98.4942 35.3317C98.6389 35.123 98.8277 34.8614 99.0538 34.5504C99.1214 34.4573 99.1922 34.3601 99.266 34.2587C99.6846 33.6838 100.199 32.9773 100.765 32.1701C102.097 30.2713 103.721 27.8067 105.083 25.1502C106.442 22.4978 107.55 19.6312 107.83 16.9316C108.111 14.2236 107.559 11.6541 105.561 9.66068C103.75 7.8326 101.764 6.99898 99.8119 6.87174C97.8662 6.74491 95.9809 7.32127 94.3612 8.26695C92.742 9.21226 91.3725 10.5354 90.4542 11.9288C89.7497 12.9978 89.2936 14.1358 89.2202 15.1922C88.3277 14.474 87.1291 13.9933 85.8164 13.7575C84.1455 13.4573 82.2508 13.5458 80.4728 14.0764C78.694 14.6071 77.0169 15.5851 75.8022 17.0773C74.584 18.5738 73.8476 20.5674 73.9236 23.0926C73.9907 25.9597 75.455 28.1454 77.5936 29.8099C79.7244 31.4684 82.5425 32.6259 85.3808 33.4586C88.2233 34.2924 91.1125 34.8077 93.4009 35.1683C93.9764 35.259 94.5074 35.3389 94.991 35.4117C95.478 35.485 95.917 35.5511 96.3052 35.6137C96.6879 35.6753 97.0086 35.7317 97.2607 35.7854C97.5212 35.8408 97.6813 35.8879 97.7602 35.9243Z" stroke="#EF7E06" stroke-opacity="0.2" stroke-width="0.696761"/>
<mask id="path-8-inside-3_69_198" fill="white">
<path d="M101.859 14.2495C96.6996 8.8703 90.0359 15.1051 90.6916 18.6114C88.2225 15.6478 79.437 16.3492 79.7961 23.6148C80.1612 31.7861 95.5925 32.6538 96.926 33.2988C97.47 32.0839 107.429 20.0601 101.859 14.2495Z"/>
</mask>
<path d="M90.6916 18.6114L90.1563 19.0574L91.8681 21.1121L91.3765 18.4834L90.6916 18.6114ZM79.7961 23.6148L80.4922 23.5837L80.492 23.5804L79.7961 23.6148ZM96.926 33.2988L96.6226 33.9261L97.2687 34.2386L97.5619 33.5836L96.926 33.2988ZM102.362 13.7672C100.967 12.313 99.4308 11.6078 97.9061 11.4745C96.3925 11.3422 94.9521 11.7784 93.7387 12.4994C92.5273 13.2193 91.5134 14.2393 90.8414 15.3283C90.1781 16.403 89.799 17.629 90.0067 18.7395L91.3765 18.4834C91.2563 17.8407 91.4642 16.9725 92.0273 16.0601C92.5815 15.162 93.4331 14.3021 94.4506 13.6974C95.4662 13.0938 96.6181 12.7607 97.7847 12.8627C98.9401 12.9637 100.171 13.4963 101.356 14.7318L102.362 13.7672ZM91.2269 18.1654C90.4767 17.2649 89.3 16.696 88.0362 16.4385C86.7625 16.1789 85.3297 16.2194 83.9893 16.6079C82.6468 16.9971 81.3689 17.7445 80.4503 18.9227C79.5255 20.1089 79.0031 21.6836 79.1002 23.6491L80.492 23.5804C80.4096 21.9131 80.8507 20.6756 81.5493 19.7795C82.2542 18.8753 83.2597 18.2703 84.3773 17.9464C85.497 17.6218 86.701 17.5885 87.7579 17.8039C88.8246 18.0213 89.6719 18.4761 90.1563 19.0574L91.2269 18.1654ZM79.1 23.6459C79.2024 25.9369 80.3696 27.6938 81.9984 29.0241C83.6134 30.3432 85.7113 31.2706 87.7831 31.942C89.8622 32.6157 91.9632 33.0465 93.613 33.3481C94.4856 33.5076 95.1085 33.6097 95.6958 33.7179C95.9682 33.7681 96.1891 33.812 96.3585 33.8519C96.443 33.8717 96.5085 33.8891 96.5576 33.904C96.6102 33.9201 96.6272 33.9283 96.6226 33.9261L97.2294 32.6716C97.07 32.5945 96.8641 32.5392 96.6773 32.4953C96.474 32.4475 96.2263 32.3987 95.9484 32.3475C95.4351 32.2529 94.6308 32.1175 93.8635 31.9773C92.2334 31.6793 90.2037 31.2615 88.2127 30.6163C86.2143 29.9687 84.3026 29.1068 82.8799 27.9448C81.471 26.7941 80.5724 25.3783 80.4922 23.5837L79.1 23.6459ZM97.5619 33.5836C97.5616 33.5842 97.5644 33.5782 97.5721 33.5639C97.5795 33.55 97.5898 33.5318 97.6036 33.5085C97.6314 33.4615 97.6687 33.4018 97.7166 33.3281C97.8126 33.1802 97.9401 32.9926 98.097 32.7643C98.4079 32.3117 98.8245 31.7129 99.2899 31.0126C100.221 29.6119 101.363 27.7828 102.314 25.7987C103.261 23.8218 104.041 21.6476 104.209 19.5627C104.379 17.4623 103.93 15.4031 102.362 13.7673L101.356 14.7316C102.573 16.0012 102.968 17.624 102.82 19.4502C102.671 21.292 101.971 23.2892 101.057 25.1964C100.146 27.0965 99.0446 28.8643 98.1293 30.2413C97.6716 30.9299 97.2644 31.5152 96.9483 31.9753C96.7916 32.2034 96.6549 32.4044 96.5479 32.569C96.449 32.7214 96.3493 32.882 96.2901 33.0141L97.5619 33.5836Z" fill="#EF7E06" fill-opacity="0.2" mask="url(#path-8-inside-3_69_198)"/>
<path d="M101.929 69.0862L101.929 69.0869C104.438 71.7064 105.21 75.0367 104.914 78.6434C104.618 82.2586 103.249 86.1231 101.508 89.7488C99.77 93.3706 97.6731 96.7302 95.9416 99.3323C95.233 100.397 94.5871 101.333 94.0513 102.109C93.9324 102.281 93.8189 102.446 93.7114 102.602C93.4162 103.031 93.1644 103.4 92.9697 103.699C92.8764 103.842 92.7928 103.974 92.7225 104.092C92.5741 104.046 92.4045 104.002 92.2201 103.96C91.8597 103.876 91.4112 103.788 90.892 103.692C90.4122 103.604 89.8672 103.509 89.2696 103.405L89.119 103.379C88.4615 103.264 87.7421 103.138 86.9731 102.997C83.8962 102.435 80.0359 101.64 76.238 100.41C72.436 99.179 68.7231 97.5193 65.9251 95.2397C63.1346 92.9663 61.2715 90.0928 61.1079 86.4124C60.9607 83.0676 61.8559 80.5045 63.3271 78.6163C64.8016 76.7238 66.8752 75.4834 69.1231 74.826C71.3722 74.1681 73.7805 74.0988 75.9002 74.5355C78.0253 74.9733 79.8219 75.9106 80.8922 77.227L81.5735 76.9129C81.2928 75.3834 81.8005 73.5063 82.9274 71.6799C84.0496 69.8612 85.7594 68.1381 87.8018 66.928C89.8429 65.7186 92.2002 65.0304 94.6239 65.2518C97.0415 65.4726 99.5599 66.6014 101.929 69.0862ZM91.1674 101.215L91.5076 101.372L91.6755 101.037C91.7184 100.951 91.818 100.795 91.9832 100.556C92.144 100.324 92.3537 100.034 92.605 99.6879C92.6802 99.5845 92.7589 99.4764 92.841 99.3637C93.3062 98.7248 93.878 97.9395 94.5072 97.0424C95.9875 94.932 97.7929 92.1927 99.3057 89.2402C100.816 86.2922 102.048 83.1061 102.36 80.1056C102.672 77.096 102.059 74.2402 99.8378 72.0246C97.8248 69.9927 95.6174 69.066 93.4477 68.9246C91.2851 68.7837 89.1897 69.4243 87.3895 70.4753C85.5899 71.526 84.0677 72.9966 83.0471 74.5452C82.2641 75.7334 81.7572 76.9982 81.6756 78.1724C80.6836 77.3741 79.3514 76.8399 77.8924 76.5777C76.0354 76.2441 73.9294 76.3425 71.9533 76.9322C69.9763 77.5221 68.1123 78.6091 66.7622 80.2676C65.4082 81.9309 64.5898 84.1466 64.6742 86.9533C64.7488 90.1399 66.3763 92.5691 68.7532 94.4192C71.1215 96.2625 74.2536 97.549 77.4082 98.4745C80.5676 99.4013 83.7788 99.974 86.3222 100.375C86.9619 100.476 87.552 100.564 88.0895 100.645C88.6308 100.727 89.1187 100.8 89.5502 100.87C89.9755 100.938 90.3319 101.001 90.6122 101.061C90.9017 101.122 91.0797 101.175 91.1674 101.215Z" stroke="#EF7E06" stroke-opacity="0.2" stroke-width="0.774412"/>
<mask id="path-11-inside-4_69_198" fill="white">
<path d="M95.7231 77.1239C89.9884 71.1452 82.582 78.0749 83.3108 81.972C80.5665 78.678 70.8019 79.4576 71.201 87.5329C71.6068 96.6148 88.7579 97.5793 90.24 98.2962C90.8446 96.9459 101.914 83.5821 95.7231 77.1239Z"/>
</mask>
<path d="M83.3108 81.972L82.7158 82.4676L84.6184 84.7513L84.072 81.8296L83.3108 81.972ZM71.201 87.5329L71.9747 87.4983L71.9745 87.4946L71.201 87.5329ZM90.24 98.2962L89.9028 98.9934L90.6208 99.3407L90.9468 98.6127L90.24 98.2962ZM96.282 76.5878C94.7317 74.9716 93.0239 74.1878 91.3293 74.0396C89.6471 73.8926 88.0461 74.3773 86.6975 75.1788C85.3511 75.9789 84.2242 77.1126 83.4773 78.3229C82.7401 79.5174 82.3187 80.88 82.5496 82.1143L84.072 81.8296C83.9384 81.1154 84.1695 80.1503 84.7953 79.1363C85.4113 78.1381 86.3578 77.1823 87.4887 76.5102C88.6175 75.8394 89.8978 75.4692 91.1944 75.5826C92.4786 75.6948 93.8471 76.2868 95.1642 77.66L96.282 76.5878ZM83.9057 81.4763C83.0719 80.4754 81.7641 79.8431 80.3594 79.5568C78.9438 79.2683 77.3513 79.3133 75.8615 79.7452C74.3694 80.1777 72.9491 81.0084 71.9282 82.3179C70.9003 83.6363 70.3196 85.3865 70.4276 87.5711L71.9745 87.4946C71.8829 85.6416 72.3731 84.2662 73.1496 83.2702C73.9331 82.2653 75.0506 81.5928 76.2927 81.2328C77.5372 80.872 78.8755 80.835 80.0501 81.0744C81.2357 81.3161 82.1775 81.8215 82.7158 82.4676L83.9057 81.4763ZM70.4274 87.5674C70.5412 90.1138 71.8384 92.0665 73.6488 93.5451C75.4438 95.0111 77.7755 96.0419 80.0782 96.7881C82.389 97.537 84.7241 98.0158 86.5577 98.3509C87.5276 98.5282 88.2199 98.6417 88.8727 98.762C89.1754 98.8178 89.4209 98.8666 89.6093 98.9109C89.7032 98.9329 89.776 98.9523 89.8305 98.9689C89.889 98.9867 89.9078 98.9958 89.9028 98.9934L90.5772 97.5991C90.4 97.5134 90.1712 97.4519 89.9635 97.4031C89.7376 97.35 89.4623 97.2957 89.1534 97.2388C88.583 97.1337 87.689 96.9832 86.8362 96.8274C85.0244 96.4962 82.7686 96.0319 80.5556 95.3147C78.3345 94.595 76.2097 93.637 74.6285 92.3455C73.0626 91.0666 72.0638 89.493 71.9747 87.4983L70.4274 87.5674ZM90.9468 98.6127C90.9465 98.6134 90.9495 98.6067 90.9581 98.5908C90.9663 98.5754 90.9778 98.5551 90.9931 98.5292C91.024 98.477 91.0655 98.4106 91.1187 98.3287C91.2254 98.1644 91.3671 97.9559 91.5414 97.7021C91.887 97.199 92.35 96.5335 92.8673 95.7552C93.9021 94.1983 95.1712 92.1654 96.2281 89.9602C97.2812 87.763 98.1474 85.3465 98.3349 83.0292C98.5239 80.6947 98.0248 78.406 96.2821 76.588L95.164 77.6598C96.5166 79.0708 96.9555 80.8744 96.7912 82.9042C96.6255 84.9512 95.8474 87.171 94.8314 89.2908C93.8193 91.4026 92.5947 93.3675 91.5774 94.8979C91.0687 95.6633 90.6161 96.3138 90.2648 96.8252C90.0907 97.0787 89.9386 97.3021 89.8198 97.4851C89.7098 97.6544 89.599 97.8329 89.5332 97.9798L90.9468 98.6127Z" fill="#EF7E06" fill-opacity="0.2" mask="url(#path-11-inside-4_69_198)"/>
<path d="M164.443 38.0177L164.442 38.0171C162.311 35.7814 160.045 34.7659 157.87 34.5672C155.69 34.368 153.569 34.9872 151.732 36.0753C149.895 37.1641 148.356 38.7144 147.346 40.3507C146.333 41.994 145.876 43.6829 146.128 45.059L145.515 45.3417C144.552 44.1572 142.936 43.3139 141.024 42.92C139.117 42.5271 136.95 42.5895 134.926 43.1814C132.904 43.7729 131.038 44.8889 129.712 46.5916C128.388 48.2905 127.582 50.5966 127.715 53.606L164.443 38.0177ZM164.443 38.0177C166.7 40.3746 167.395 43.3709 167.129 46.616C166.862 49.8687 165.63 53.3457 164.064 56.6079C162.5 59.8665 160.614 62.8892 159.056 65.2304C158.418 66.1884 157.837 67.0304 157.355 67.7287C157.248 67.8838 157.146 68.0317 157.049 68.1723C156.784 68.5582 156.557 68.8902 156.382 69.1588C156.298 69.2876 156.223 69.4064 156.159 69.5124M164.443 38.0177L156.159 69.5124M156.159 69.5124C156.026 69.4715 155.873 69.4323 155.707 69.3937C155.383 69.3182 154.98 69.2389 154.512 69.1531C154.081 69.0738 153.59 68.9882 153.052 68.8944L152.917 68.8709C152.326 68.7677 151.678 68.6543 150.987 68.5279C148.218 68.0218 144.745 67.3071 141.328 66.2004C137.907 65.0925 134.566 63.5992 132.049 61.5482C129.538 59.5027 127.862 56.9174 127.715 53.6062L156.159 69.5124ZM154.76 66.9243L155.066 67.0652L155.217 66.764C155.256 66.687 155.346 66.546 155.494 66.3317C155.639 66.123 155.828 65.8614 156.054 65.5504C156.121 65.4573 156.192 65.3601 156.266 65.2587C156.685 64.6838 157.199 63.9773 157.765 63.1701C159.097 61.2713 160.721 58.8067 162.083 56.1502C163.442 53.4978 164.55 50.6312 164.83 47.9316C165.111 45.2236 164.559 42.6541 162.561 40.6607C160.75 38.8326 158.764 37.999 156.812 37.8717C154.866 37.7449 152.981 38.3213 151.361 39.2669C149.742 40.2123 148.372 41.5354 147.454 42.9288C146.75 43.9978 146.294 45.1358 146.22 46.1922C145.328 45.474 144.129 44.9933 142.816 44.7575C141.146 44.4573 139.251 44.5458 137.473 45.0764C135.694 45.6071 134.017 46.5851 132.802 48.0773C131.584 49.5738 130.848 51.5674 130.924 54.0926C130.991 56.9597 132.455 59.1454 134.594 60.8099C136.724 62.4684 139.542 63.6259 142.381 64.4586C145.223 65.2924 148.112 65.8077 150.401 66.1683C150.976 66.259 151.507 66.3389 151.991 66.4117C152.478 66.485 152.917 66.5511 153.305 66.6137C153.688 66.6753 154.009 66.7317 154.261 66.7854C154.521 66.8408 154.681 66.8879 154.76 66.9243Z" stroke="#EF7E06" stroke-opacity="0.2" stroke-width="0.696761"/>
<mask id="path-14-inside-5_69_198" fill="white">
<path d="M158.859 45.2495C153.7 39.8703 147.036 46.1051 147.692 49.6114C145.222 46.6478 136.437 47.3492 136.796 54.6148C137.161 62.7861 152.593 63.6538 153.926 64.2988C154.47 63.0839 164.429 51.0601 158.859 45.2495Z"/>
</mask>
<path d="M147.692 49.6114L147.156 50.0574L148.868 52.1121L148.376 49.4834L147.692 49.6114ZM136.796 54.6148L137.492 54.5837L137.492 54.5804L136.796 54.6148ZM153.926 64.2988L153.623 64.9261L154.269 65.2386L154.562 64.5836L153.926 64.2988ZM159.362 44.7672C157.967 43.313 156.431 42.6078 154.906 42.4745C153.393 42.3422 151.952 42.7784 150.739 43.4994C149.527 44.2193 148.513 45.2393 147.841 46.3283C147.178 47.403 146.799 48.629 147.007 49.7395L148.376 49.4834C148.256 48.8407 148.464 47.9725 149.027 47.0601C149.582 46.162 150.433 45.3021 151.451 44.6974C152.466 44.0938 153.618 43.7607 154.785 43.8627C155.94 43.9637 157.171 44.4963 158.356 45.7318L159.362 44.7672ZM148.227 49.1654C147.477 48.2649 146.3 47.696 145.036 47.4385C143.763 47.1789 142.33 47.2194 140.989 47.6079C139.647 47.9971 138.369 48.7445 137.45 49.9227C136.526 51.1089 136.003 52.6836 136.1 54.6491L137.492 54.5804C137.41 52.9131 137.851 51.6756 138.549 50.7795C139.254 49.8753 140.26 49.2703 141.377 48.9464C142.497 48.6218 143.701 48.5885 144.758 48.8039C145.825 49.0213 146.672 49.4761 147.156 50.0574L148.227 49.1654ZM136.1 54.6459C136.202 56.9369 137.37 58.6938 138.998 60.0241C140.613 61.3432 142.711 62.2706 144.783 62.942C146.862 63.6157 148.963 64.0465 150.613 64.3481C151.486 64.5076 152.108 64.6097 152.696 64.7179C152.968 64.7681 153.189 64.812 153.359 64.8519C153.443 64.8717 153.509 64.8891 153.558 64.904C153.61 64.9201 153.627 64.9283 153.623 64.9261L154.229 63.6716C154.07 63.5945 153.864 63.5392 153.677 63.4953C153.474 63.4475 153.226 63.3987 152.948 63.3475C152.435 63.2529 151.631 63.1175 150.864 62.9773C149.233 62.6793 147.204 62.2615 145.213 61.6163C143.214 60.9687 141.303 60.1068 139.88 58.9448C138.471 57.7941 137.572 56.3783 137.492 54.5837L136.1 54.6459ZM154.562 64.5836C154.562 64.5842 154.564 64.5782 154.572 64.5639C154.58 64.55 154.59 64.5318 154.604 64.5085C154.631 64.4615 154.669 64.4018 154.717 64.3281C154.813 64.1802 154.94 63.9926 155.097 63.7643C155.408 63.3117 155.824 62.7129 156.29 62.0126C157.221 60.6119 158.363 58.7828 159.314 56.7987C160.261 54.8218 161.041 52.6476 161.209 50.5627C161.379 48.4623 160.93 46.4031 159.362 44.7673L158.356 45.7316C159.573 47.0012 159.968 48.624 159.82 50.4502C159.671 52.292 158.971 54.2892 158.057 56.1964C157.146 58.0965 156.045 59.8643 155.129 61.2413C154.672 61.9299 154.264 62.5152 153.948 62.9753C153.792 63.2034 153.655 63.4044 153.548 63.569C153.449 63.7214 153.349 63.882 153.29 64.0141L154.562 64.5836Z" fill="#EF7E06" fill-opacity="0.2" mask="url(#path-14-inside-5_69_198)"/>
<path d="M165.711 99.6892L165.711 99.6885C163.241 97.0979 160.616 95.9211 158.095 95.6909C155.568 95.4601 153.111 96.1775 150.982 97.4384C148.853 98.7001 147.071 100.496 145.901 102.393C144.726 104.297 144.196 106.254 144.489 107.848L143.779 108.176C142.663 106.803 140.79 105.826 138.574 105.37C136.364 104.915 133.854 104.987 131.509 105.673C129.165 106.358 127.003 107.651 125.466 109.624C123.932 111.593 122.999 114.265 123.152 117.752L165.711 99.6892ZM165.711 99.6892C168.327 102.42 169.132 105.892 168.823 109.653C168.514 113.422 167.087 117.451 165.273 121.231C163.46 125.007 161.274 128.509 159.469 131.222C158.73 132.332 158.057 133.308 157.498 134.117C157.374 134.297 157.256 134.468 157.144 134.631C156.836 135.078 156.573 135.463 156.37 135.774C156.273 135.924 156.186 136.061 156.113 136.184M165.711 99.6892L156.113 136.184M156.113 136.184C155.958 136.137 155.781 136.091 155.589 136.046C155.213 135.959 154.746 135.867 154.204 135.768C153.704 135.676 153.136 135.577 152.514 135.468L152.356 135.441C151.67 135.321 150.92 135.19 150.119 135.043C146.911 134.457 142.886 133.629 138.926 132.346C134.963 131.062 131.092 129.332 128.175 126.955C125.265 124.585 123.323 121.589 123.152 117.752L156.113 136.184ZM154.491 133.185L154.846 133.348L155.021 132.999C155.066 132.91 155.17 132.747 155.342 132.498C155.51 132.256 155.728 131.953 155.99 131.593C156.069 131.485 156.151 131.372 156.236 131.255C156.721 130.589 157.317 129.77 157.973 128.835C159.517 126.635 161.399 123.779 162.976 120.7C164.551 117.627 165.836 114.305 166.16 111.177C166.486 108.039 165.846 105.062 163.531 102.752C161.432 100.634 159.131 99.6675 156.869 99.52C154.614 99.3731 152.43 100.041 150.553 101.137C148.676 102.232 147.089 103.765 146.025 105.38C145.209 106.619 144.681 107.937 144.596 109.161C143.561 108.329 142.172 107.772 140.651 107.499C138.715 107.151 136.52 107.254 134.459 107.868C132.398 108.483 130.455 109.617 129.047 111.346C127.636 113.08 126.782 115.39 126.87 118.316C126.948 121.638 128.645 124.171 131.123 126.1C133.592 128.022 136.858 129.363 140.147 130.328C143.44 131.294 146.788 131.891 149.44 132.309C150.107 132.414 150.722 132.507 151.283 132.591C151.847 132.676 152.356 132.753 152.805 132.825C153.249 132.896 153.62 132.962 153.913 133.024C154.214 133.088 154.4 133.143 154.491 133.185Z" stroke="#EF7E06" stroke-opacity="0.2" stroke-width="0.807378"/>
<mask id="path-17-inside-6_69_198" fill="white">
<path d="M159.241 108.068C153.262 101.835 145.541 109.06 146.3 113.123C143.439 109.688 133.259 110.501 133.675 118.92C134.098 128.389 151.979 129.394 153.525 130.142C154.155 128.734 165.695 114.801 159.241 108.068Z"/>
</mask>
<path d="M146.3 113.123L145.68 113.639L147.664 116.02L147.094 112.974L146.3 113.123ZM133.675 118.92L134.482 118.884L134.482 118.88L133.675 118.92ZM153.525 130.142L153.173 130.869L153.922 131.231L154.261 130.472L153.525 130.142ZM159.824 107.509C158.207 105.824 156.427 105.007 154.66 104.853C152.906 104.699 151.237 105.205 149.831 106.04C148.428 106.874 147.253 108.056 146.474 109.318C145.705 110.564 145.266 111.984 145.507 113.271L147.094 112.974C146.955 112.23 147.196 111.223 147.848 110.166C148.49 109.126 149.477 108.129 150.656 107.428C151.833 106.729 153.168 106.343 154.52 106.461C155.858 106.578 157.285 107.195 158.658 108.627L159.824 107.509ZM146.921 112.606C146.051 111.562 144.688 110.903 143.223 110.605C141.748 110.304 140.087 110.351 138.534 110.801C136.978 111.252 135.498 112.118 134.433 113.483C133.362 114.858 132.756 116.683 132.869 118.96L134.482 118.88C134.386 116.948 134.897 115.514 135.707 114.476C136.523 113.428 137.689 112.727 138.984 112.352C140.281 111.976 141.676 111.937 142.901 112.187C144.137 112.439 145.119 112.966 145.68 113.639L146.921 112.606ZM132.869 118.956C132.987 121.611 134.34 123.647 136.227 125.188C138.098 126.717 140.529 127.792 142.93 128.57C145.339 129.35 147.774 129.849 149.686 130.199C150.697 130.384 151.418 130.502 152.099 130.627C152.415 130.686 152.671 130.736 152.867 130.783C152.965 130.806 153.041 130.826 153.098 130.843C153.159 130.862 153.178 130.871 153.173 130.869L153.876 129.415C153.691 129.326 153.453 129.262 153.236 129.211C153.001 129.155 152.714 129.099 152.392 129.039C151.797 128.93 150.865 128.773 149.976 128.61C148.087 128.265 145.735 127.781 143.428 127.033C141.112 126.283 138.897 125.284 137.248 123.938C135.616 122.604 134.575 120.964 134.482 118.884L132.869 118.956ZM154.261 130.472C154.261 130.473 154.264 130.466 154.273 130.449C154.282 130.433 154.294 130.412 154.31 130.385C154.342 130.33 154.385 130.261 154.441 130.176C154.552 130.004 154.7 129.787 154.881 129.522C155.242 128.998 155.724 128.304 156.264 127.493C157.343 125.869 158.666 123.75 159.768 121.451C160.865 119.16 161.769 116.641 161.964 114.225C162.161 111.791 161.641 109.405 159.824 107.509L158.658 108.627C160.068 110.098 160.526 111.978 160.355 114.095C160.182 116.229 159.371 118.543 158.311 120.753C157.256 122.955 155.979 125.003 154.919 126.599C154.389 127.397 153.917 128.075 153.55 128.608C153.369 128.872 153.21 129.105 153.086 129.296C152.972 129.473 152.856 129.659 152.788 129.812L154.261 130.472Z" fill="#EF7E06" fill-opacity="0.2" mask="url(#path-17-inside-6_69_198)"/>
</svg>
