<svg width="166" height="157" viewBox="0 0 166 157" fill="none" xmlns="http://www.w3.org/2000/svg">
<path d="M70.0176 8.91604C66.5484 9.56448 63.9547 12.4014 62.7551 16.8432C62.3822 18.2211 62.3336 18.7237 62.3336 21.2364C62.3174 23.5221 62.3822 24.3164 62.6254 25.2891C64.5058 32.7137 70.5363 36.0369 75.432 32.3571C80.1656 28.7906 81.5922 20.2799 78.5121 14.0063C77.3449 11.6233 75.6266 9.96975 73.5515 9.25647C72.4816 8.88362 70.9902 8.73772 70.0176 8.91604Z" fill="url(#paint0_linear_69_219)"/>
<path d="M92.5508 8.93235C90.1354 9.33762 87.8334 11.2505 86.5203 13.9415C83.0836 20.9122 85.2235 30.4118 90.8324 33.1515C95.5498 35.4534 100.672 31.9681 102.375 25.2892C102.618 24.3003 102.683 23.5222 102.666 21.2364C102.65 18.74 102.602 18.2212 102.245 16.8433C100.77 11.3316 96.9278 8.20286 92.5508 8.93235Z" fill="url(#paint1_linear_69_219)"/>
<path d="M50.0295 25.7916C47.9221 26.2779 46.3658 27.9152 45.4256 30.59C45.0041 31.7734 44.9717 32.0166 44.9717 34.6103C44.9879 36.9285 45.0365 37.577 45.3283 38.6955C46.4469 42.8941 48.4895 45.8932 51.1318 47.19C52.1693 47.6926 52.3801 47.7412 53.8066 47.7412C55.1521 47.7412 55.4602 47.6926 56.2545 47.2873C57.3244 46.7686 58.6375 45.4555 59.2049 44.3207C61.1826 40.3814 60.518 33.816 57.7297 29.7309C56.8867 28.4664 55.217 26.8939 54.2119 26.3914C52.834 25.6943 51.3426 25.4836 50.0295 25.7916Z" fill="url(#paint2_linear_69_219)"/>
<path d="M112.247 25.8242C110.95 26.1646 109.832 26.8617 108.632 28.1099C106.038 30.8009 104.693 34.4322 104.677 38.8253C104.66 41.2246 105.001 42.8132 105.876 44.4505C107.595 47.6765 111.388 48.714 114.581 46.8011C117.046 45.3259 119.218 41.5974 119.947 37.6095C120.207 36.183 120.174 33.1839 119.882 31.7574C119.364 29.2447 117.791 26.9914 115.992 26.1646C114.938 25.6783 113.382 25.5324 112.247 25.8242Z" fill="url(#paint3_linear_69_219)"/>
<path d="M79.2578 39.5385C77.0693 40.0249 74.9295 40.9813 73.276 42.2458C72.352 42.959 60.0965 54.5174 58.6375 56.0737C56.7895 58.019 55.9141 60.2885 55.9141 63.0768C55.9141 68.394 59.4156 72.9817 64.2789 74.003C66.6619 74.5055 69.2881 74.2299 73.7785 73.0141C78.2203 71.8145 79.1605 71.6524 81.6895 71.5389C84.6885 71.4255 86.65 71.701 91.2701 72.852C96.8953 74.2624 98.5326 74.4731 100.705 74.003C105.52 72.9817 109.086 68.3616 109.086 63.1417C109.086 60.321 108.194 58.019 106.363 56.0737C104.79 54.3878 92.5832 42.8942 91.5781 42.1485C90.3623 41.2245 88.0441 40.1221 86.4717 39.7006C84.5912 39.1981 81.1383 39.1171 79.2578 39.5385Z" fill="url(#paint4_linear_69_219)"/>
<path d="M5.50501 92.8975V119.206H0V92.8975H5.50501ZM16.148 104.137V108.365H4.00031V104.137H16.148ZM17.4325 92.8975V97.1437H4.00031V92.8975H17.4325Z" fill="black"/>
<path d="M31.6355 114.526V99.6554H36.9203V119.206H31.9474L31.6355 114.526ZM32.2227 110.515L33.7824 110.479C33.7824 111.78 33.6295 112.99 33.3237 114.111C33.0178 115.219 32.5591 116.183 31.9474 117.002C31.3357 117.809 30.565 118.441 29.6353 118.899C28.7056 119.345 27.6107 119.568 26.3507 119.568C25.3842 119.568 24.4912 119.435 23.6715 119.17C22.8641 118.893 22.1668 118.465 21.5796 117.887C21.0047 117.297 20.552 116.544 20.2217 115.629C19.9037 114.701 19.7446 113.587 19.7446 112.286V99.6554H25.0294V112.322C25.0294 112.9 25.0967 113.388 25.2313 113.786C25.3781 114.183 25.5799 114.508 25.8368 114.761C26.0938 115.014 26.3935 115.195 26.736 115.303C27.0908 115.412 27.4822 115.466 27.9104 115.466C28.9992 115.466 29.8555 115.249 30.4794 114.815C31.1155 114.382 31.5621 113.792 31.819 113.045C32.0881 112.286 32.2227 111.443 32.2227 110.515Z" fill="black"/>
<path d="M46.2421 103.92V119.206H40.9573V99.6554H45.9301L46.2421 103.92ZM52.2242 99.5289L52.1325 104.353C51.8755 104.317 51.5636 104.287 51.1966 104.263C50.8418 104.227 50.5176 104.209 50.224 104.209C49.4778 104.209 48.8294 104.305 48.2789 104.498C47.7407 104.679 47.288 104.95 46.921 105.311C46.5663 105.672 46.2971 106.112 46.1136 106.63C45.9424 107.148 45.8445 107.738 45.82 108.401L44.7557 108.076C44.7557 106.811 44.8842 105.648 45.1411 104.588C45.398 103.516 45.7711 102.583 46.2604 101.788C46.762 100.992 47.3737 100.378 48.0954 99.9445C48.8172 99.5108 49.643 99.294 50.5727 99.294C50.8663 99.294 51.166 99.3181 51.4718 99.3663C51.7777 99.4024 52.0285 99.4566 52.2242 99.5289Z" fill="black"/>
<path d="M60.0046 103.92V119.206H54.7198V99.6554H59.6927L60.0046 103.92ZM65.9867 99.5289L65.895 104.353C65.6381 104.317 65.3261 104.287 64.9591 104.263C64.6044 104.227 64.2802 104.209 63.9866 104.209C63.2403 104.209 62.592 104.305 62.0415 104.498C61.5032 104.679 61.0506 104.95 60.6836 105.311C60.3288 105.672 60.0597 106.112 59.8762 106.63C59.7049 107.148 59.607 107.738 59.5826 108.401L58.5183 108.076C58.5183 106.811 58.6467 105.648 58.9036 104.588C59.1605 103.516 59.5336 102.583 60.023 101.788C60.5245 100.992 61.1362 100.378 61.858 99.9445C62.5797 99.5108 63.4055 99.294 64.3352 99.294C64.6288 99.294 64.9285 99.3181 65.2344 99.3663C65.5402 99.4024 65.791 99.4566 65.9867 99.5289Z" fill="black"/>
<path d="M74.703 117.002L79.9695 99.6554H85.6396L77.6573 122.152C77.4861 122.646 77.2536 123.176 76.96 123.742C76.6787 124.308 76.2933 124.844 75.804 125.35C75.3269 125.868 74.7213 126.289 73.9873 126.615C73.2656 126.94 72.3787 127.103 71.3266 127.103C70.825 127.103 70.4152 127.072 70.0971 127.012C69.7791 126.952 69.3998 126.868 68.9594 126.759V122.947C69.094 122.947 69.2347 122.947 69.3815 122.947C69.5283 122.959 69.669 122.965 69.8035 122.965C70.5008 122.965 71.0697 122.886 71.5101 122.73C71.9505 122.573 72.3053 122.332 72.5744 122.007C72.8435 121.694 73.0576 121.284 73.2166 120.778L74.703 117.002ZM72.501 99.6554L76.8132 113.822L77.5656 119.333L73.969 119.712L66.8308 99.6554H72.501Z" fill="black"/>
<path d="M105.256 114.978V119.206H91.8052V114.978H105.256ZM93.5852 92.8975V119.206H88.0802V92.8975H93.5852Z" fill="black"/>
<path d="M107.238 109.63V109.25C107.238 107.817 107.446 106.498 107.862 105.293C108.277 104.076 108.883 103.022 109.678 102.131C110.473 101.239 111.452 100.547 112.614 100.053C113.776 99.547 115.11 99.294 116.614 99.294C118.119 99.294 119.459 99.547 120.633 100.053C121.808 100.547 122.792 101.239 123.587 102.131C124.395 103.022 125.007 104.076 125.422 105.293C125.838 106.498 126.046 107.817 126.046 109.25V109.63C126.046 111.051 125.838 112.37 125.422 113.587C125.007 114.791 124.395 115.845 123.587 116.749C122.792 117.64 121.814 118.333 120.651 118.827C119.489 119.321 118.156 119.568 116.651 119.568C115.146 119.568 113.807 119.321 112.633 118.827C111.47 118.333 110.486 117.64 109.678 116.749C108.883 115.845 108.277 114.791 107.862 113.587C107.446 112.37 107.238 111.051 107.238 109.63ZM112.522 109.25V109.63C112.522 110.449 112.596 111.214 112.743 111.924C112.889 112.635 113.122 113.262 113.44 113.804C113.77 114.334 114.198 114.749 114.724 115.05C115.25 115.352 115.893 115.502 116.651 115.502C117.385 115.502 118.015 115.352 118.541 115.05C119.067 114.749 119.489 114.334 119.807 113.804C120.125 113.262 120.358 112.635 120.505 111.924C120.664 111.214 120.743 110.449 120.743 109.63V109.25C120.743 108.455 120.664 107.708 120.505 107.01C120.358 106.299 120.119 105.672 119.789 105.13C119.471 104.576 119.049 104.143 118.523 103.829C117.997 103.516 117.361 103.36 116.614 103.36C115.868 103.36 115.232 103.516 114.706 103.829C114.192 104.143 113.77 104.576 113.44 105.13C113.122 105.672 112.889 106.299 112.743 107.01C112.596 107.708 112.522 108.455 112.522 109.25Z" fill="black"/>
<path d="M135.754 115.412L140.158 99.6554H145.681L138.983 119.206H135.643L135.754 115.412ZM132.726 99.6554L137.148 115.43L137.24 119.206H133.882L127.184 99.6554H132.726Z" fill="black"/>
<path d="M156.93 119.568C155.388 119.568 154.006 119.327 152.782 118.845C151.559 118.351 150.519 117.67 149.663 116.803C148.819 115.936 148.17 114.93 147.718 113.786C147.265 112.629 147.039 111.4 147.039 110.099V109.377C147.039 107.895 147.253 106.54 147.681 105.311C148.109 104.082 148.721 103.016 149.516 102.113C150.323 101.209 151.302 100.517 152.452 100.035C153.602 99.5409 154.899 99.294 156.342 99.294C157.749 99.294 158.997 99.5229 160.086 99.9806C161.174 100.438 162.086 101.089 162.82 101.932C163.566 102.775 164.129 103.787 164.508 104.968C164.887 106.136 165.077 107.437 165.077 108.871V111.039H149.296V107.57H159.884V107.172C159.884 106.449 159.749 105.805 159.48 105.239C159.223 104.661 158.832 104.203 158.306 103.866C157.78 103.528 157.107 103.36 156.287 103.36C155.59 103.36 154.991 103.51 154.489 103.811C153.987 104.112 153.578 104.534 153.259 105.076C152.954 105.618 152.721 106.257 152.562 106.991C152.415 107.714 152.342 108.509 152.342 109.377V110.099C152.342 110.882 152.452 111.605 152.672 112.268C152.905 112.93 153.229 113.502 153.645 113.984C154.073 114.466 154.587 114.84 155.186 115.105C155.798 115.37 156.489 115.502 157.26 115.502C158.214 115.502 159.101 115.321 159.921 114.96C160.752 114.587 161.468 114.026 162.068 113.28L164.637 116.026C164.221 116.616 163.652 117.183 162.93 117.725C162.22 118.267 161.364 118.712 160.361 119.062C159.358 119.399 158.214 119.568 156.93 119.568Z" fill="black"/>
<path d="M2.7 148.812H8.46V150H1.44V137.4H2.7V148.812ZM17.1692 148.866C16.2572 149.766 15.1412 150.216 13.8212 150.216C12.5012 150.216 11.3792 149.766 10.4552 148.866C9.54319 147.954 9.08719 146.832 9.08719 145.5C9.08719 144.168 9.54319 143.052 10.4552 142.152C11.3792 141.24 12.5012 140.784 13.8212 140.784C15.1412 140.784 16.2572 141.24 17.1692 142.152C18.0932 143.052 18.5552 144.168 18.5552 145.5C18.5552 146.832 18.0932 147.954 17.1692 148.866ZM11.3012 148.038C11.9852 148.722 12.8252 149.064 13.8212 149.064C14.8172 149.064 15.6572 148.722 16.3412 148.038C17.0252 147.342 17.3672 146.496 17.3672 145.5C17.3672 144.504 17.0252 143.664 16.3412 142.98C15.6572 142.284 14.8172 141.936 13.8212 141.936C12.8252 141.936 11.9852 142.284 11.3012 142.98C10.6172 143.664 10.2752 144.504 10.2752 145.5C10.2752 146.496 10.6172 147.342 11.3012 148.038ZM26.6716 141H27.9316L24.2416 150H22.8016L19.1116 141H20.3716L23.5216 148.758L26.6716 141ZM33.1739 140.784C34.5059 140.784 35.5799 141.258 36.3959 142.206C37.2239 143.142 37.6379 144.252 37.6379 145.536C37.6379 145.668 37.6259 145.854 37.6019 146.094H29.6999C29.8199 147.006 30.2039 147.732 30.8519 148.272C31.5119 148.8 32.3219 149.064 33.2819 149.064C33.9659 149.064 34.5539 148.926 35.0459 148.65C35.5499 148.362 35.9279 147.99 36.1799 147.534L37.2239 148.146C36.8279 148.782 36.2879 149.286 35.6039 149.658C34.9199 150.03 34.1399 150.216 33.2639 150.216C31.8479 150.216 30.6959 149.772 29.8079 148.884C28.9199 147.996 28.4759 146.868 28.4759 145.5C28.4759 144.156 28.9139 143.034 29.7899 142.134C30.6659 141.234 31.7939 140.784 33.1739 140.784ZM33.1739 141.936C32.2379 141.936 31.4519 142.218 30.8159 142.782C30.1919 143.334 29.8199 144.054 29.6999 144.942H36.4139C36.2939 143.994 35.9279 143.256 35.3159 142.728C34.7039 142.2 33.9899 141.936 33.1739 141.936ZM45.2336 138.84C45.0656 139.008 44.8616 139.092 44.6216 139.092C44.3816 139.092 44.1776 139.008 44.0096 138.84C43.8416 138.672 43.7576 138.468 43.7576 138.228C43.7576 137.988 43.8416 137.784 44.0096 137.616C44.1776 137.448 44.3816 137.364 44.6216 137.364C44.8616 137.364 45.0656 137.448 45.2336 137.616C45.4016 137.784 45.4856 137.988 45.4856 138.228C45.4856 138.468 45.4016 138.672 45.2336 138.84ZM44.0276 150V141H45.2156V150H44.0276ZM48.6726 143.358C48.6726 143.766 48.8526 144.09 49.2126 144.33C49.5726 144.57 50.0106 144.756 50.5266 144.888C51.0426 145.02 51.5586 145.17 52.0746 145.338C52.5906 145.494 53.0286 145.764 53.3886 146.148C53.7486 146.52 53.9286 147.012 53.9286 147.624C53.9286 148.392 53.6226 149.016 53.0106 149.496C52.4106 149.976 51.6306 150.216 50.6706 150.216C49.8066 150.216 49.0686 150.024 48.4566 149.64C47.8566 149.256 47.4366 148.758 47.1966 148.146L48.2046 147.552C48.3726 148.02 48.6726 148.392 49.1046 148.668C49.5486 148.932 50.0706 149.064 50.6706 149.064C51.2586 149.064 51.7506 148.95 52.1466 148.722C52.5426 148.482 52.7406 148.116 52.7406 147.624C52.7406 147.216 52.5606 146.892 52.2006 146.652C51.8406 146.412 51.4026 146.226 50.8866 146.094C50.3706 145.962 49.8546 145.818 49.3386 145.662C48.8226 145.494 48.3846 145.224 48.0246 144.852C47.6646 144.468 47.4846 143.97 47.4846 143.358C47.4846 142.626 47.7726 142.014 48.3486 141.522C48.9366 141.03 49.6746 140.784 50.5626 140.784C51.2946 140.784 51.9366 140.952 52.4886 141.288C53.0406 141.612 53.4486 142.056 53.7126 142.62L52.7226 143.196C52.3746 142.356 51.6546 141.936 50.5626 141.936C50.0466 141.936 49.6026 142.062 49.2306 142.314C48.8586 142.554 48.6726 142.902 48.6726 143.358ZM68.1504 141H69.3384V150H68.1504V148.236C67.3224 149.556 66.1104 150.216 64.5144 150.216C63.2304 150.216 62.1324 149.76 61.2204 148.848C60.3204 147.936 59.8704 146.82 59.8704 145.5C59.8704 144.18 60.3204 143.064 61.2204 142.152C62.1324 141.24 63.2304 140.784 64.5144 140.784C66.1104 140.784 67.3224 141.444 68.1504 142.764V141ZM62.0844 148.038C62.7684 148.722 63.6084 149.064 64.6044 149.064C65.6004 149.064 66.4404 148.722 67.1244 148.038C67.8084 147.342 68.1504 146.496 68.1504 145.5C68.1504 144.504 67.8084 143.664 67.1244 142.98C66.4404 142.284 65.6004 141.936 64.6044 141.936C63.6084 141.936 62.7684 142.284 62.0844 142.98C61.4004 143.664 61.0584 144.504 61.0584 145.5C61.0584 146.496 61.4004 147.342 62.0844 148.038ZM79.2878 150L75.6338 137.4H76.9658L80.0798 148.29L83.3558 137.4H84.8318L88.1078 148.29L91.2218 137.4H92.5538L88.8998 150H87.3878L84.0938 139.056L80.7998 150H79.2878ZM101.021 141H102.209V150H101.021V148.236C100.193 149.556 98.9815 150.216 97.3855 150.216C96.1015 150.216 95.0035 149.76 94.0915 148.848C93.1915 147.936 92.7415 146.82 92.7415 145.5C92.7415 144.18 93.1915 143.064 94.0915 142.152C95.0035 141.24 96.1015 140.784 97.3855 140.784C98.9815 140.784 100.193 141.444 101.021 142.764V141ZM94.9555 148.038C95.6395 148.722 96.4795 149.064 97.4755 149.064C98.4715 149.064 99.3115 148.722 99.9955 148.038C100.679 147.342 101.021 146.496 101.021 145.5C101.021 144.504 100.679 143.664 99.9955 142.98C99.3115 142.284 98.4715 141.936 97.4755 141.936C96.4795 141.936 95.6395 142.284 94.9555 142.98C94.2715 143.664 93.9295 144.504 93.9295 145.5C93.9295 146.496 94.2715 147.342 94.9555 148.038ZM112.465 141H113.653V149.64C113.653 150.936 113.209 151.956 112.321 152.7C111.433 153.444 110.371 153.816 109.135 153.816C107.023 153.816 105.601 153.084 104.869 151.62L105.913 151.026C106.453 152.118 107.527 152.664 109.135 152.664C110.167 152.664 110.977 152.388 111.565 151.836C112.165 151.296 112.465 150.564 112.465 149.64V148.236C111.637 149.556 110.425 150.216 108.829 150.216C107.545 150.216 106.447 149.76 105.535 148.848C104.635 147.936 104.185 146.82 104.185 145.5C104.185 144.18 104.635 143.064 105.535 142.152C106.447 141.24 107.545 140.784 108.829 140.784C110.425 140.784 111.637 141.444 112.465 142.764V141ZM106.399 148.038C107.083 148.722 107.923 149.064 108.919 149.064C109.915 149.064 110.755 148.722 111.439 148.038C112.123 147.342 112.465 146.496 112.465 145.5C112.465 144.504 112.123 143.664 111.439 142.98C110.755 142.284 109.915 141.936 108.919 141.936C107.923 141.936 107.083 142.284 106.399 142.98C105.715 143.664 105.373 144.504 105.373 145.5C105.373 146.496 105.715 147.342 106.399 148.038ZM129.236 150L128.066 146.904H122.09L120.92 150H119.588L124.43 137.4H125.726L130.568 150H129.236ZM122.54 145.716H127.616L125.078 138.966L122.54 145.716ZM142.491 141H143.715L140.943 150H139.647L137.325 142.746L135.003 150H133.707L130.935 141H132.159L134.373 148.47L136.731 141H137.919L140.277 148.47L142.491 141ZM152.895 141H154.083V150H152.895V148.236C152.067 149.556 150.855 150.216 149.259 150.216C147.975 150.216 146.877 149.76 145.965 148.848C145.065 147.936 144.615 146.82 144.615 145.5C144.615 144.18 145.065 143.064 145.965 142.152C146.877 141.24 147.975 140.784 149.259 140.784C150.855 140.784 152.067 141.444 152.895 142.764V141ZM146.829 148.038C147.513 148.722 148.353 149.064 149.349 149.064C150.345 149.064 151.185 148.722 151.869 148.038C152.553 147.342 152.895 146.496 152.895 145.5C152.895 144.504 152.553 143.664 151.869 142.98C151.185 142.284 150.345 141.936 149.349 141.936C148.353 141.936 147.513 142.284 146.829 142.98C146.145 143.664 145.803 144.504 145.803 145.5C145.803 146.496 146.145 147.342 146.829 148.038ZM163.078 141H164.338L160.486 150.828C160.138 151.716 159.64 152.412 158.992 152.916C158.356 153.432 157.642 153.66 156.85 153.6V152.484C157.93 152.604 158.752 151.98 159.316 150.612L159.55 150.054L155.518 141H156.778L160.162 148.542L163.078 141Z" fill="black"/>
<defs>
<linearGradient id="paint0_linear_69_219" x1="66.784" y1="2.21621" x2="80.8954" y2="27.1636" gradientUnits="userSpaceOnUse">
<stop stop-color="#EF7E06"/>
<stop offset="1" stop-color="#F7B327"/>
</linearGradient>
<linearGradient id="paint1_linear_69_219" x1="89.3152" y1="2.20137" x2="103.436" y2="27.1485" gradientUnits="userSpaceOnUse">
<stop stop-color="#EF7E06"/>
<stop offset="1" stop-color="#F7B327"/>
</linearGradient>
<linearGradient id="paint2_linear_69_219" x1="48.8147" y1="19.8069" x2="61.4124" y2="41.5843" gradientUnits="userSpaceOnUse">
<stop stop-color="#EF7E06"/>
<stop offset="1" stop-color="#F7B327"/>
</linearGradient>
<linearGradient id="paint3_linear_69_219" x1="108.538" y1="19.8285" x2="121.102" y2="41.6574" gradientUnits="userSpaceOnUse">
<stop stop-color="#EF7E06"/>
<stop offset="1" stop-color="#F7B327"/>
</linearGradient>
<linearGradient id="paint4_linear_69_219" x1="69.207" y1="30.0093" x2="80.5956" y2="73.0155" gradientUnits="userSpaceOnUse">
<stop stop-color="#EF7E06"/>
<stop offset="1" stop-color="#F7B327"/>
</linearGradient>
</defs>
</svg>
