<svg width="121" height="62" viewBox="0 0 121 62" fill="none" xmlns="http://www.w3.org/2000/svg">
<path d="M7.845 43.5V44.82H4.74V54H3.36V44.82H0.27V43.5H7.845ZM13.9383 46.5H15.2433V54H13.9383V52.71C13.2883 53.7 12.3433 54.195 11.1033 54.195C10.0533 54.195 9.15828 53.815 8.41828 53.055C7.67828 52.285 7.30828 51.35 7.30828 50.25C7.30828 49.15 7.67828 48.22 8.41828 47.46C9.15828 46.69 10.0533 46.305 11.1033 46.305C12.3433 46.305 13.2883 46.8 13.9383 47.79V46.5ZM11.2683 52.935C12.0283 52.935 12.6633 52.68 13.1733 52.17C13.6833 51.65 13.9383 51.01 13.9383 50.25C13.9383 49.49 13.6833 48.855 13.1733 48.345C12.6633 47.825 12.0283 47.565 11.2683 47.565C10.5183 47.565 9.88828 47.825 9.37828 48.345C8.86828 48.855 8.61328 49.49 8.61328 50.25C8.61328 51.01 8.86828 51.65 9.37828 52.17C9.88828 52.68 10.5183 52.935 11.2683 52.935ZM21.3605 46.305C22.4105 46.305 23.3055 46.69 24.0455 47.46C24.7855 48.22 25.1555 49.15 25.1555 50.25C25.1555 51.35 24.7855 52.285 24.0455 53.055C23.3055 53.815 22.4105 54.195 21.3605 54.195C20.1205 54.195 19.1755 53.7 18.5255 52.71V57H17.2205V46.5H18.5255V47.79C19.1755 46.8 20.1205 46.305 21.3605 46.305ZM21.1955 52.935C21.9455 52.935 22.5755 52.68 23.0855 52.17C23.5955 51.65 23.8505 51.01 23.8505 50.25C23.8505 49.49 23.5955 48.855 23.0855 48.345C22.5755 47.825 21.9455 47.565 21.1955 47.565C20.4355 47.565 19.8005 47.825 19.2905 48.345C18.7805 48.855 18.5255 49.49 18.5255 50.25C18.5255 51.01 18.7805 51.65 19.2905 52.17C19.8005 52.68 20.4355 52.935 21.1955 52.935ZM34.5427 47.76H32.5477V51.825C32.5477 52.195 32.6177 52.46 32.7577 52.62C32.9077 52.77 33.1327 52.85 33.4327 52.86C33.7327 52.86 34.1027 52.85 34.5427 52.83V54C33.4027 54.15 32.5677 54.06 32.0377 53.73C31.5077 53.39 31.2427 52.755 31.2427 51.825V47.76H29.7577V46.5H31.2427V44.79L32.5477 44.4V46.5H34.5427V47.76ZM42.0368 53.055C41.2668 53.815 40.3318 54.195 39.2318 54.195C38.1318 54.195 37.1968 53.815 36.4268 53.055C35.6668 52.295 35.2868 51.36 35.2868 50.25C35.2868 49.14 35.6668 48.205 36.4268 47.445C37.1968 46.685 38.1318 46.305 39.2318 46.305C40.3318 46.305 41.2668 46.685 42.0368 47.445C42.8068 48.205 43.1918 49.14 43.1918 50.25C43.1918 51.36 42.8068 52.295 42.0368 53.055ZM39.2318 52.92C39.9818 52.92 40.6118 52.665 41.1218 52.155C41.6318 51.645 41.8868 51.01 41.8868 50.25C41.8868 49.49 41.6318 48.855 41.1218 48.345C40.6118 47.835 39.9818 47.58 39.2318 47.58C38.4918 47.58 37.8668 47.835 37.3568 48.345C36.8468 48.855 36.5918 49.49 36.5918 50.25C36.5918 51.01 36.8468 51.645 37.3568 52.155C37.8668 52.665 38.4918 52.92 39.2318 52.92ZM54.6902 46.5H55.9952V54H54.6902V52.71C54.0402 53.7 53.0952 54.195 51.8552 54.195C50.8052 54.195 49.9102 53.815 49.1702 53.055C48.4302 52.285 48.0602 51.35 48.0602 50.25C48.0602 49.15 48.4302 48.22 49.1702 47.46C49.9102 46.69 50.8052 46.305 51.8552 46.305C53.0952 46.305 54.0402 46.8 54.6902 47.79V46.5ZM52.0202 52.935C52.7802 52.935 53.4152 52.68 53.9252 52.17C54.4352 51.65 54.6902 51.01 54.6902 50.25C54.6902 49.49 54.4352 48.855 53.9252 48.345C53.4152 47.825 52.7802 47.565 52.0202 47.565C51.2702 47.565 50.6402 47.825 50.1302 48.345C49.6202 48.855 49.3652 49.49 49.3652 50.25C49.3652 51.01 49.6202 51.65 50.1302 52.17C50.6402 52.68 51.2702 52.935 52.0202 52.935ZM64.1824 43.5H65.4874V54H64.1824V52.71C63.5324 53.7 62.5874 54.195 61.3474 54.195C60.2974 54.195 59.4024 53.815 58.6624 53.055C57.9224 52.285 57.5524 51.35 57.5524 50.25C57.5524 49.15 57.9224 48.22 58.6624 47.46C59.4024 46.69 60.2974 46.305 61.3474 46.305C62.5874 46.305 63.5324 46.8 64.1824 47.79V43.5ZM61.5124 52.935C62.2724 52.935 62.9074 52.68 63.4174 52.17C63.9274 51.65 64.1824 51.01 64.1824 50.25C64.1824 49.49 63.9274 48.855 63.4174 48.345C62.9074 47.825 62.2724 47.565 61.5124 47.565C60.7624 47.565 60.1324 47.825 59.6224 48.345C59.1124 48.855 58.8574 49.49 58.8574 50.25C58.8574 51.01 59.1124 51.65 59.6224 52.17C60.1324 52.68 60.7624 52.935 61.5124 52.935ZM73.6746 43.5H74.9796V54H73.6746V52.71C73.0246 53.7 72.0796 54.195 70.8396 54.195C69.7896 54.195 68.8946 53.815 68.1546 53.055C67.4146 52.285 67.0446 51.35 67.0446 50.25C67.0446 49.15 67.4146 48.22 68.1546 47.46C68.8946 46.69 69.7896 46.305 70.8396 46.305C72.0796 46.305 73.0246 46.8 73.6746 47.79V43.5ZM71.0046 52.935C71.7646 52.935 72.3996 52.68 72.9096 52.17C73.4196 51.65 73.6746 51.01 73.6746 50.25C73.6746 49.49 73.4196 48.855 72.9096 48.345C72.3996 47.825 71.7646 47.565 71.0046 47.565C70.2546 47.565 69.6246 47.825 69.1146 48.345C68.6046 48.855 68.3496 49.49 68.3496 50.25C68.3496 51.01 68.6046 51.65 69.1146 52.17C69.6246 52.68 70.2546 52.935 71.0046 52.935ZM84.8468 46.305C85.8968 46.305 86.7918 46.69 87.5318 47.46C88.2718 48.22 88.6418 49.15 88.6418 50.25C88.6418 51.35 88.2718 52.285 87.5318 53.055C86.7918 53.815 85.8968 54.195 84.8468 54.195C83.6068 54.195 82.6618 53.7 82.0118 52.71V57H80.7068V46.5H82.0118V47.79C82.6618 46.8 83.6068 46.305 84.8468 46.305ZM84.6818 52.935C85.4318 52.935 86.0618 52.68 86.5718 52.17C87.0818 51.65 87.3368 51.01 87.3368 50.25C87.3368 49.49 87.0818 48.855 86.5718 48.345C86.0618 47.825 85.4318 47.565 84.6818 47.565C83.9218 47.565 83.2868 47.825 82.7768 48.345C82.2668 48.855 82.0118 49.49 82.0118 50.25C82.0118 51.01 82.2668 51.65 82.7768 52.17C83.2868 52.68 83.9218 52.935 84.6818 52.935ZM93.934 46.305C94.814 46.305 95.519 46.585 96.049 47.145C96.579 47.695 96.844 48.445 96.844 49.395V54H95.539V49.47C95.539 48.86 95.374 48.39 95.044 48.06C94.714 47.72 94.259 47.55 93.679 47.55C93.029 47.55 92.504 47.755 92.104 48.165C91.704 48.565 91.504 49.185 91.504 50.025V54H90.199V43.5H91.504V47.58C92.034 46.73 92.844 46.305 93.934 46.305ZM104.996 53.055C104.226 53.815 103.291 54.195 102.191 54.195C101.091 54.195 100.156 53.815 99.3858 53.055C98.6258 52.295 98.2458 51.36 98.2458 50.25C98.2458 49.14 98.6258 48.205 99.3858 47.445C100.156 46.685 101.091 46.305 102.191 46.305C103.291 46.305 104.226 46.685 104.996 47.445C105.766 48.205 106.151 49.14 106.151 50.25C106.151 51.36 105.766 52.295 104.996 53.055ZM102.191 52.92C102.941 52.92 103.571 52.665 104.081 52.155C104.591 51.645 104.846 51.01 104.846 50.25C104.846 49.49 104.591 48.855 104.081 48.345C103.571 47.835 102.941 47.58 102.191 47.58C101.451 47.58 100.826 47.835 100.316 48.345C99.8058 48.855 99.5508 49.49 99.5508 50.25C99.5508 51.01 99.8058 51.645 100.316 52.155C100.826 52.665 101.451 52.92 102.191 52.92ZM111.608 47.76H109.613V51.825C109.613 52.195 109.683 52.46 109.823 52.62C109.973 52.77 110.198 52.85 110.498 52.86C110.798 52.86 111.168 52.85 111.608 52.83V54C110.468 54.15 109.633 54.06 109.103 53.73C108.573 53.39 108.308 52.755 108.308 51.825V47.76H106.823V46.5H108.308V44.79L109.613 44.4V46.5H111.608V47.76ZM119.102 53.055C118.332 53.815 117.397 54.195 116.297 54.195C115.197 54.195 114.262 53.815 113.492 53.055C112.732 52.295 112.352 51.36 112.352 50.25C112.352 49.14 112.732 48.205 113.492 47.445C114.262 46.685 115.197 46.305 116.297 46.305C117.397 46.305 118.332 46.685 119.102 47.445C119.872 48.205 120.257 49.14 120.257 50.25C120.257 51.36 119.872 52.295 119.102 53.055ZM116.297 52.92C117.047 52.92 117.677 52.665 118.187 52.155C118.697 51.645 118.952 51.01 118.952 50.25C118.952 49.49 118.697 48.855 118.187 48.345C117.677 47.835 117.047 47.58 116.297 47.58C115.557 47.58 114.932 47.835 114.422 48.345C113.912 48.855 113.657 49.49 113.657 50.25C113.657 51.01 113.912 51.645 114.422 52.155C114.932 52.665 115.557 52.92 116.297 52.92Z" fill="#EF7E06"/>
<circle cx="68.5" cy="5.5" r="5.5" fill="#EF7E06" fill-opacity="0.11"/>
<path fill-rule="evenodd" clip-rule="evenodd" d="M68.136 6.63039C69.0595 6.63039 69.871 6.99417 70.4586 7.60979C71.0742 8.19743 71.438 9.00894 71.438 9.93237V23.8679C71.438 24.7633 71.0462 25.6028 70.4586 26.1904C69.871 26.8061 69.0595 27.1698 68.136 27.1698H45.302C44.4065 27.1698 43.567 26.7781 42.9794 26.1904C42.3638 25.6028 42 24.7913 42 23.8679V9.93237C42 9.03692 42.3918 8.19743 42.9794 7.60979C43.567 6.99417 44.3785 6.63039 45.302 6.63039H49.9192V6.57443C49.9192 5.87485 50.199 5.23125 50.6747 4.75554C51.1504 4.27983 51.794 4 52.5216 4H60.9164C61.616 4 62.2596 4.27983 62.7353 4.75554C63.211 5.20326 63.4909 5.87485 63.4909 6.57443V6.63039H68.136ZM69.9549 23.8679H69.9829V9.93237C69.9829 9.42868 69.787 8.98096 69.4512 8.64516C69.1154 8.30937 68.6677 8.11349 68.164 8.11349H62.7633C62.3436 8.11349 62.0078 7.77769 62.0078 7.35795V6.54644C62.0078 6.23863 61.8958 5.9588 61.7 5.76292C61.5041 5.56704 61.2243 5.45511 60.9164 5.45511H52.5496C52.2417 5.45511 51.9619 5.56704 51.766 5.76292C51.5702 5.9588 51.4582 6.23863 51.4582 6.54644V7.35795C51.4582 7.77769 51.1224 8.11349 50.7027 8.11349H45.302C44.7983 8.11349 44.3506 8.30937 44.0148 8.64516C43.679 8.98096 43.4831 9.42868 43.4831 9.93237V23.8679C43.4831 24.3716 43.679 24.8193 44.0148 25.1551C44.3506 25.4909 44.7983 25.6867 45.302 25.6867H68.136C68.6397 25.6867 69.0874 25.4909 69.4232 25.1551C69.759 24.8193 69.9549 24.3716 69.9549 23.8679Z" fill="#EF7E06"/>
<path fill-rule="evenodd" clip-rule="evenodd" d="M51.85 12.0311C53.0812 10.7999 54.8162 10.0164 56.719 10.0164C58.6218 10.0164 60.3568 10.7999 61.588 12.0311C62.8193 13.2624 63.6028 14.9973 63.6028 16.9002C63.6028 18.803 62.8473 20.5099 61.588 21.7692C60.3568 23.0004 58.6218 23.7839 56.719 23.7839C54.8162 23.7839 53.1092 23.0284 51.85 21.7692C50.6187 20.5379 49.8352 18.803 49.8352 16.9002C49.8352 14.9973 50.5907 13.2904 51.85 12.0311ZM56.719 22.3009C58.2021 22.3009 59.5453 21.6852 60.5247 20.7338C61.5041 19.7544 62.1197 18.4112 62.0917 16.9281C62.0917 15.445 61.5041 14.1019 60.5247 13.1225C59.5453 12.171 58.2021 11.5554 56.719 11.5554C55.2359 11.5554 53.8927 12.1431 52.9133 13.1225C51.9619 14.1019 51.3463 15.445 51.3463 16.9281C51.3463 18.4112 51.9339 19.7544 52.9133 20.7338C53.8927 21.6852 55.2359 22.3009 56.719 22.3009Z" fill="#EF7E06"/>
<circle cx="66.681" cy="11.3594" r="1.37116" fill="#EF7E06"/>
</svg>
